# xmcd CD database file
#
# Track frame offsets:
#	150
#	2637
#	21715
#	34645
#	51927
#	62705
#
# Disc length: 1046 seconds
#
# Revision: 1
# Processed by: cddbd v1.5.2PL0 Copyright (c) Steve Scherf et al.
# Submitted via: CDex 1.70beta2
#
DISCID=4a041406
DTITLE=Money Mark - Mark's Keyboard Repair [CD2]
DYEAR=1919
DGENRE=A Cappella
TTITLE0=Intro
TTITLE1=Cry [Dust Brothers Remix]
TTITLE2=Sometimes You Gotta Make It Alone [New Version]
TTITLE3=Hand In Your Head (With Russell Simins and Sean Lennon)
TTITLE4=Never Stop
TTITLE5=Space Alert Now
EXTD=YEAR: 1919
EXTT0=
EXTT1=
EXTT2=
EXTT3=
EXTT4=
EXTT5=
PLAYORDER=
